<?xml version="1.0" encoding="UTF-8"?><svg xmlns="http://www.w3.org/2000/svg" xmlns:xlink="http://www.w3.org/1999/xlink" height="37.0" preserveAspectRatio="xMidYMid meet" version="1.0" viewBox="5.9 6.0 36.1 37.0" width="36.1" zoomAndPan="magnify"><g><path d="M0,0H48V48H0Z" fill="none"/><g id="change1_1"><path d="M24,43a1.983,1.983,0,0,1-.632-.1l-12-4a2,2,0,0,1-1.349-1.624l-4-29A2,2,0,0,1,8,6H40a2,2,0,0,1,1.981,2.273l-4,29A2,2,0,0,1,36.632,38.9l-12,4A1.983,1.983,0,0,1,24,43ZM13.812,35.5,24,38.892l10.188-3.4L37.705,10H10.3Z"/></g><g id="change1_2"><path d="M21,34a2,2,0,0,1-.895-.211l-4-2a2,2,0,1,1,1.79-3.578L19,28.764V18H15a2,2,0,0,1,0-4h6a2,2,0,0,1,2,2V32a2,2,0,0,1-2,2Z"/></g><g id="change1_3"><path d="M27,34a2,2,0,0,1-.484-3.94l2.7-.674L29.693,26H28a3,3,0,0,1-3-3V17a3,3,0,0,1,3-3h5a2,2,0,0,1,0,4H29v4h1.846a3,3,0,0,1,3,3,2.97,2.97,0,0,1-.032.432l-.834,5.85a2,2,0,0,1-1.495,1.658l-4,1A1.99,1.99,0,0,1,27,34Zm2.857-9.142v0Z"/></g></g></svg>