<?xml version="1.0" encoding="UTF-8"?><svg xmlns="http://www.w3.org/2000/svg" xmlns:xlink="http://www.w3.org/1999/xlink" height="990.1" preserveAspectRatio="xMidYMid meet" version="1.0" viewBox="82.8 6.1 831.0 990.1" width="831.0" zoomAndPan="magnify"><g><g id="change1_1"><path d="M4471.7,2352.3c-304-86.9-532.9-244.8-682.9-469.8c-240.8-371.1-248.7-442.1-154-2317.3l23.7-493.5L3319-1402c-576.4-801.4-607.9-856.7-765.8-1302.7c-201.3-560.6-300-785.6-446.1-1010.6c-126.3-197.4-165.8-536.9-79-643.5c39.5-43.4,35.5-71.1-11.8-130.3c-31.6-39.5-114.5-146-177.6-236.9c-157.9-217.1-276.3-292.1-588.2-367.1C907-5176,828-5274.7,883.3-5535.3c27.6-126.3,27.6-315.8,4-604c-23.7-232.9-31.6-454-19.7-493.5c31.6-94.7,114.5-122.4,955.3-335.6c394.8-98.7,832.9-232.9,967.2-292.1c446.1-201.4,706.6-185.5,971.1,51.3c79,71.1,229,169.7,335.6,217.1c177.6,86.9,232.9,90.8,1085.6,90.8c493.5-3.9,935.6-19.7,986.9-35.5c47.4-19.7,118.4-94.7,157.9-169.7c114.5-225,244.8-292.1,556.7-284.2c331.6,4,481.6,75,813.2,371.1c304,272.4,513.2,414.5,908,615.8c343.5,169.8,532.9,331.6,532.9,450c0,79-59.2,142.1-375,402.7c-304,252.6-414.5,434.2-414.5,682.9c0,185.5-11.8,217.1-98.7,256.6c-94.7,43.4-94.7,47.4-31.6,122.4c59.2,63.2,71,146.1,67.1,497.4c0,382.9-15.8,457.9-169.7,911.9c-193.4,576.4-323.7,825.1-710.6,1358c-367.2,505.3-690.8,1061.9-769.8,1306.7c-31.6,110.5-86.9,525-118.4,923.8c-63.2,714.5-67.1,734.3-221.1,1054c-177.6,367.1-351.3,536.9-734.3,714.5C5281,2403.6,4775.7,2439.1,4471.7,2352.3z M5660,919.2c217.1-264.5,252.6-679,75-868.5c-94.7-102.6-138.2-110.5-292.1-47.3l-110.5,39.5l126.3,98.7c157.9,122.4,165.8,280.3,31.6,438.2c-94.8,106.6-102.7,106.6-205.3,51.3c-126.3-67.1-197.4-276.3-138.2-390.8c55.2-102.7,11.8-130.3-114.5-63.2c-130.3,67.1-157.9,130.3-157.9,363.2c0,315.8,197.4,521.1,501.4,525C5517.9,1065.3,5557.4,1045.6,5660,919.2z M4298,915.3c181.6-161.8,248.7-600.1,106.6-679c-110.5-55.2-110.5-59.2-134.2,146.1c-11.9,114.5-47.4,205.3-90.8,236.9c-90.8,67.1-114.5,63.1-193.4-15.8c-102.6-98.7-55.3-363.2,82.9-469.8c102.6-86.9,102.6-86.9,23.7-130.3c-126.3-67.1-154-55.3-240.8,126.3c-138.2,288.2-86.9,742.2,102.6,852.7C4041.4,1033.7,4195.4,1002.2,4298,915.3z M5817.9-655.9c7.9-39.5,106.6-280.3,221.1-529c114.5-248.7,229-532.9,256.6-627.7c23.7-98.7,134.2-347.4,240.8-552.7c102.6-209.3,217.1-485.6,252.6-615.9c82.9-323.7,122.4-1136.9,63.2-1350.1c-43.4-161.8-55.3-169.7-193.5-169.7c-82.9,0-169.7-19.7-197.4-47.4c-31.6-31.6-47.4-209.2-47.4-540.8v-493.5L6208.7-5780c-268.4-248.7-615.8-473.7-860.6-556.6c-434.2-146.1-1061.9-146.1-1338.3-3.9c-106.6,59.2-398.7,363.2-398.7,418.4c0,15.8,71.1,47.4,157.9,75c292.1,86.9,315.8,386.9,43.4,584.3c-481.6,351.4-983,769.8-1022.5,860.6c-63.2,138.2-59.2,532.9,7.9,848.8c31.6,142.1,154,469.8,272.4,730.3c122.4,260.6,240.8,552.7,264.5,651.4c71,272.4,268.4,679,386.9,801.4c94.8,98.7,106.6,150,122.4,426.4c4,169.7,19.7,311.8,31.6,311.8c11.8,0,118.4-90.8,240.8-197.4c276.3-248.7,446.1-304,706.7-240.8c102.6,27.6,252.7,98.7,327.7,153.9c189.5,150,564.5,359.3,611.9,347.4C5786.4-573,5810-612.5,5817.9-655.9z" transform="matrix(.1 0 0 -.1 0 250)"/></g></g></svg>