<?xml version="1.0" encoding="UTF-8" standalone="no"?><svg xmlns="http://www.w3.org/2000/svg" xmlns:xlink="http://www.w3.org/1999/xlink" fill="#000000" height="256.4" preserveAspectRatio="xMidYMid" version="1.1" viewBox="-0.0 -0.2 256.0 256.4" width="256" zoomAndPan="magnify">
 <defs>
  <radialGradient cy="-50%" id="radialGradient-1" r="100%" xlink:actuate="onLoad" xlink:show="other" xlink:type="simple">
   <stop offset="0" stop-color="#000000"/>
   <stop offset="1" stop-color="#000000"/>
  </radialGradient>
 </defs>
 <g>
  <path d="m185.53 88.839l-0.09-0.04c-0.06-0.02-0.11-0.04-0.16-0.087-0.15-0.167-0.22-0.396-0.18-0.621l5.16-31.553 24.23 24.209-25.2 10.709c-0.07 0.028-0.14 0.042-0.22 0.04h-0.1c-0.03-0.02-0.06-0.047-0.13-0.114-0.94-1.043-2.06-1.905-3.31-2.543zm35.15-1.923l25.9 25.874c5.38 5.39 8.08 8.07 9.06 11.18 0.15 0.46 0.27 0.92 0.36 1.4l-61.91-26.196c-0.04-0.014-0.07-0.027-0.1-0.04-0.25-0.1-0.54-0.214-0.54-0.467 0-0.254 0.3-0.374 0.54-0.474l0.08-0.034 26.61-11.243zm34.26 46.754c-1.33 2.51-3.94 5.12-8.35 9.53l-29.21 29.17-37.78-7.86-0.2-0.04c-0.33-0.05-0.69-0.11-0.69-0.41-0.29-3.15-1.87-6.03-4.37-7.97-0.16-0.15-0.12-0.39-0.07-0.61 0-0.04 0-0.07 0.01-0.1l7.11-43.57 0.02-0.14c0.04-0.34 0.1-0.73 0.41-0.73 3.07-0.38 5.86-1.98 7.75-4.44 0.06-0.06 0.1-0.14 0.18-0.18 0.21-0.1 0.47 0 0.69 0.1l64.5 27.25zm-44.28 45.41l-48.03 47.98 8.22-50.48 0.02-0.06c0-0.07 0.02-0.14 0.04-0.2 0.06-0.16 0.24-0.23 0.41-0.29l0.08-0.04c1.8-0.76 3.39-1.95 4.64-3.45 0.16-0.18 0.35-0.36 0.6-0.4 0.07-0.01 0.13-0.01 0.2 0l33.82 6.95v-0.01zm-58.19 58.13l-5.42 5.41-59.852-86.41c-0.022-0.03-0.044-0.06-0.067-0.09-0.093-0.13-0.194-0.26-0.173-0.4 0.006-0.11 0.073-0.2 0.147-0.28l0.066-0.09c0.181-0.27 0.335-0.53 0.502-0.82l0.133-0.23 0.02-0.02c0.094-0.16 0.181-0.32 0.341-0.41 0.141-0.06 0.335-0.04 0.488 0l66.315 13.66c0.18 0.03 0.36 0.1 0.5 0.22 0.09 0.09 0.11 0.18 0.13 0.29 0.94 3.54 3.48 6.44 6.87 7.84 0.19 0.09 0.11 0.3 0.02 0.52-0.04 0.1-0.07 0.2-0.1 0.3-0.83 5.08-8 48.73-9.92 60.51zm-11.31 11.29c-3.99 3.95-6.35 6.04-9.01 6.88-2.62 0.83-5.43 0.83-8.06 0-3.11-0.99-5.81-3.67-11.19-9.05l-60.104-60.05 15.701-24.32c0.073-0.12 0.147-0.23 0.267-0.31 0.167-0.12 0.408-0.07 0.608 0 3.604 1.08 7.473 0.89 10.948-0.56 0.181-0.06 0.361-0.11 0.502 0.02 0.07 0.06 0.133 0.13 0.187 0.21l60.151 87.19v-0.01zm-94.159-68.01l-13.789-13.77 27.23-11.6c0.07-0.03 0.145-0.05 0.221-0.05 0.227 0 0.361 0.23 0.481 0.43 0.274 0.42 0.564 0.83 0.869 1.23l0.087 0.11c0.08 0.11 0.027 0.23-0.053 0.33l-15.039 23.32h-0.007zm-19.891-19.87l-17.445-17.42c-2.9677-2.97-5.1199-5.12-6.6171-6.96l53.043 10.99c0.067 0.01 0.134 0.02 0.201 0.03 0.327 0.05 0.688 0.11 0.688 0.42 0 0.33-0.394 0.49-0.728 0.61l-0.154 0.07-28.988 12.26zm-27.11-33.34c0.06045-1.13 0.26257-2.24 0.60155-3.31 0.98925-3.11 3.6762-5.79 9.0634-11.18l22.324-22.296c10.279 14.906 20.585 29.786 30.92 44.646 0.18 0.24 0.381 0.51 0.174 0.71-0.976 1.07-1.952 2.25-2.641 3.52-0.074 0.17-0.189 0.31-0.334 0.42-0.087 0.05-0.18 0.03-0.28 0.01h-0.014l-59.814-12.53v0.01zm37.965-42.754l30.017-29.985c2.821 1.235 13.087 5.568 22.271 9.441 6.951 2.938 13.287 5.608 15.277 6.476 0.2 0.08 0.38 0.16 0.47 0.361 0.05 0.12 0.03 0.273 0 0.4-0.97 4.397 0.35 8.984 3.5 12.205 0.2 0.2 0 0.487-0.18 0.734l-0.09 0.141-30.48 47.161c-0.081 0.13-0.154 0.24-0.288 0.33-0.16 0.1-0.387 0.05-0.575 0.01-1.185-0.31-2.404-0.48-3.629-0.5-1.096 0-2.286 0.2-3.489 0.42h-0.007c-0.133 0.02-0.254 0.05-0.36-0.03-0.119-0.1-0.22-0.21-0.301-0.34l-32.136-46.824zm36.079-36.04l38.856-38.818c5.38-5.3745 8.08-8.0652 11.19-9.0466 2.63-0.82852 5.44-0.82852 8.06-0.00003 3.12 0.98143 5.81 3.6721 11.19 9.0467l8.42 8.4129-27.63 42.756c-0.07 0.125-0.16 0.234-0.28 0.321-0.16 0.113-0.4 0.066-0.6 0-4.42-1.341-9.22-0.417-12.83 2.47-0.18 0.187-0.45 0.08-0.68-0.02-3.61-1.569-31.679-13.42-35.696-15.122zm83.586-24.543l25.52 25.491-6.15 38.043v0.1c0 0.087-0.02 0.172-0.05 0.254-0.07 0.133-0.2 0.16-0.33 0.2-1.32 0.398-2.56 1.014-3.67 1.823-0.05 0.033-0.09 0.071-0.13 0.113-0.07 0.08-0.15 0.154-0.27 0.167-0.1 0.003-0.19-0.013-0.29-0.047l-38.88-16.504-0.08-0.034c-0.24-0.1-0.54-0.22-0.54-0.474-0.23-2.164-0.93-4.251-2.07-6.109-0.19-0.307-0.39-0.627-0.23-0.941l27.17-42.082zm-26.28 57.458l36.46 15.423c0.2 0.093 0.42 0.18 0.5 0.387 0.04 0.125 0.04 0.256 0 0.381-0.1 0.534-0.2 1.141-0.2 1.756v1.022c0 0.25-0.26 0.36-0.5 0.46l-0.07 0.03c-5.78 2.46-81.077 34.53-81.191 34.53-0.113 0-0.234 0-0.347-0.11-0.201-0.2 0-0.48 0.18-0.73 0.032-0.05 0.063-0.09 0.094-0.14l29.954-46.332 0.06-0.081c0.17-0.28 0.37-0.594 0.69-0.594l0.3 0.047c0.68 0.093 1.29 0.18 1.89 0.18 4.55 0 8.76-2.21 11.3-5.989 0.06-0.101 0.14-0.191 0.23-0.267 0.18-0.133 0.44-0.066 0.65 0.027zm-41.746 61.329l82.076-34.97s0.12 0 0.24 0.11c0.44 0.45 0.83 0.75 1.19 1.03l0.18 0.12c0.17 0.09 0.34 0.2 0.35 0.37 0 0.07 0 0.11-0.01 0.17l-7.03 43.14-0.03 0.17c-0.05 0.34-0.09 0.72-0.41 0.72-3.8 0.25-7.24 2.37-9.18 5.65l-0.03 0.06c-0.09 0.15-0.18 0.3-0.33 0.38-0.14 0.06-0.32 0.04-0.47 0l-65.456-13.48c-0.067-0.02-1.016-3.47-1.09-3.47z" fill="url(#radialGradient-1)"/>
 </g>
</svg>