<?xml version="1.0"?>
<svg xmlns="http://www.w3.org/2000/svg" viewBox="0 0 50 50">
    <path style="text-indent:0;text-align:start;line-height:normal;text-transform:none;block-progression:tb;-inkscape-font-specification:Sans" d="M 24.90625 1 A 1.0001 1.0001 0 0 0 24.59375 1.09375 L 4.8125 9.59375 A 1.0001 1.0001 0 0 0 4.5 9.71875 A 1.0001 1.0001 0 0 0 4.09375 10.15625 A 1.0001 1.0001 0 0 0 4.0625 10.1875 A 1.0001 1.0001 0 0 0 4 10.375 A 1.0001 1.0001 0 0 0 4 10.4375 A 1.0001 1.0001 0 0 0 4 10.84375 A 1.0001 1.0001 0 0 0 4.03125 10.96875 L 5.28125 30.4375 A 1.0001 1.0001 0 0 0 5.6875 31.1875 L 13.09375 36.5625 C 12.969432 37.177345 12.875 37.771563 12.875 38.375 C 12.875 44.228 18.325 49 25 49 C 31.675 49 37.09375 44.229 37.09375 38.375 C 37.09375 37.785511 37.02472 37.194419 36.90625 36.59375 L 44.3125 31.1875 A 1.0001 1.0001 0 0 0 44.71875 30.4375 L 46 10.78125 L 46 10.75 A 1.0077822 1.0077822 0 0 0 46 10.5625 A 1.0001 1.0001 0 0 0 46 10.53125 A 1.0077822 1.0077822 0 0 0 46 10.46875 A 1.0001 1.0001 0 0 0 46 10.4375 A 1.0077822 1.0077822 0 0 0 45.90625 10.15625 A 1.0077822 1.0077822 0 0 0 45.8125 10 A 1.0077822 1.0077822 0 0 0 45.75 9.9375 A 1.0001 1.0001 0 0 0 45.75 9.90625 A 1.0077822 1.0077822 0 0 0 45.59375 9.78125 A 1.0077822 1.0077822 0 0 0 45.40625 9.6875 L 45.21875 9.625 L 25.40625 1.09375 A 1.0001 1.0001 0 0 0 24.90625 1 z M 25 3.09375 L 42.78125 10.71875 L 25 20.84375 L 7.21875 10.71875 L 25 3.09375 z M 25 5.71875 L 21.96875 7.03125 L 23.125 7.75 C 23.255 7.833 23.32875 7.972 23.34375 8.125 C 23.35875 8.278 23.2985 8.42525 23.1875 8.53125 L 21.46875 10.1875 L 25.96875 8.34375 C 26.17875 8.25675 26.4275 8.313 26.5625 8.5 C 26.6985 8.687 26.68025 8.949 26.53125 9.125 L 25.15625 10.75 L 27.34375 9.96875 C 27.53875 9.89875 27.739 9.968 27.875 10.125 C 28.009 10.281 28.0335 10.5045 27.9375 10.6875 L 26.65625 13.15625 L 29.90625 15.0625 L 37.15625 10.9375 L 25 5.71875 z M 20.84375 7.5 L 12.84375 10.9375 L 25 17.84375 L 28.90625 15.625 L 25.71875 13.75 C 25.48875 13.615 25.40625 13.33075 25.53125 13.09375 L 26.46875 11.34375 L 23.71875 12.3125 C 23.50575 12.3895 23.28525 12.312 23.15625 12.125 C 23.02825 11.938 23.0415 11.70325 23.1875 11.53125 L 24.4375 10.03125 L 19.375 12.125 C 19.154 12.218 18.881 12.1405 18.75 11.9375 C 18.619 11.7355 18.66975 11.4785 18.84375 11.3125 L 22.03125 8.25 L 20.84375 7.5 z M 6.09375 12.375 L 24 22.5625 L 24 42.03125 L 7.25 29.84375 L 6.09375 12.375 z M 43.90625 12.375 L 42.75 29.84375 L 26 42.03125 L 26 22.5625 L 43.90625 12.375 z M 40.96875 16.875 L 28.59375 24.40625 L 28.375 37.15625 L 40.03125 29 L 40.96875 16.875 z M 8.96875 17.09375 L 9.78125 28.5625 L 21.09375 36.65625 L 20.8125 24.46875 L 8.96875 17.09375 z" overflow="visible" font-family="Sans"/>
</svg>
