<?xml version="1.0" encoding="UTF-8"?><!-- Generator: Adobe Illustrator 16.0.0, SVG Export Plug-In . SVG Version: 6.00 Build 0)  --><svg xmlns="http://www.w3.org/2000/svg" enable-background="new 0 0 488.785 406.861" height="406.86px" id="Layer_1" version="1.1" viewBox="0 0 488.785 406.861" width="488.78px" x="0px" xml:space="preserve" y="0px">
<g id="change1">
	<path d="m488.78 194.2c-12.512 16.362-55.342-4.624-55.342-4.624s2.213-13.196 11.402-16.455c-3.324-0.572-6.645-0.975-9.949-1.252 21.574-17.188 31.553-33.532 22.42-26.562-19.252 14.692-32.998 8.844-32.998 8.844s57.57-63.02 36.078-90.511c3.291 24.702-51.295 43.387-51.295 43.387s-9.395-13.185-4.322-23.835c-5.637 3.985-10.873 8.335-15.748 12.933 3.428-29.844-2.98-51.163-4.199-39.234-2.408 23.586-17.152 29.485-17.152 29.485s-8-83.315-45.66-86.379c22.1 14.192-3.047 65.689-3.047 65.689s-17.391-2.124-22.157-12.877c-1.485 10.376-1.581 20.663-0.688 30.646-12.746-13.281-22.076-18.194-16.504-10.895 14.69 19.253 8.842 32.998 8.842 32.998s-63.018-57.568-90.507-36.078c24.701-3.292 43.386 51.296 43.386 51.296s-13.184 9.392-23.833 4.32c11.484 16.244 25.977 29.235 40.848 39.515-9.927-1.689-20.334-2.396-30.947-1.574 8.848 4.096 9.834 17.441 9.834 17.441s-44.589 16.931-55.533-0.52c0.841 28.832 70.729 38.529 70.729 38.529s-5.656 10.978-25.657 11.793c-19.33 0.791 62.813 21.262 105.9-25.938-4.377 34.053-12.164 64.973-25.979 72.9-1.752 7.736 16.764 2.064 16.764 2.064s7.186-29.463 11.73-76.177c38.055 52.578 123.4 39.603 104.06 37.002-19.838-2.663-24.455-14.116-24.455-14.116s70.48-3.18 73.98-31.81z" fill="#B24D32"/>
</g>
<g id="change2_1_">
	<path d="m342.42 48.749s1.418 8.957 2.342 22.462c0.273 3.374 0.424 7.038 0.631 10.91 0.145 3.875 0.283 7.961 0.344 12.189 0.008 4.229 0.107 8.599-0.029 13.039-0.045 2.219-0.09 4.457-0.133 6.703-0.104 2.244-0.207 4.496-0.312 6.749-0.158 4.508-0.527 9.003-0.877 13.428-0.277 4.431-0.842 8.765-1.287 12.968-0.396 4.209-1.064 8.243-1.609 12.077-0.281 1.917-0.557 3.781-0.82 5.583-0.334 1.792-0.654 3.522-0.963 5.185-0.633 3.321-1.15 6.376-1.721 9.062-0.613 2.676-1.148 5.009-1.59 6.931-0.883 3.842-1.387 6.038-1.387 6.038s0.479-2.201 1.32-6.053c0.42-1.925 0.93-4.263 1.516-6.945 0.539-2.691 1.021-5.751 1.619-9.076 0.289-1.664 0.592-3.396 0.906-5.19 0.244-1.804 0.498-3.669 0.76-5.587 0.504-3.837 1.125-7.871 1.479-12.08 0.396-4.202 0.914-8.535 1.143-12.963 0.301-4.421 0.623-8.911 0.73-13.413 0.08-2.249 0.158-4.498 0.238-6.738 0.02-2.242 0.037-4.475 0.059-6.69 0.09-4.43-0.057-8.789-0.109-13.007-0.107-4.217-0.291-8.292-0.477-12.152-0.248-3.858-0.438-7.509-0.746-10.869-1.068-13.463-2.57-22.312-2.568-22.312l1.55-0.251z" fill="#AD691F"/>
	<g>
		<path d="m339.22 172.42" fill="none"/>
	</g>
	<path d="m344.73 120.02s0.154-0.04 0.441-0.114c0.275-0.068 0.699-0.203 1.236-0.367 1.062-0.361 2.586-0.909 4.352-1.728 0.883-0.411 1.832-0.876 2.814-1.407 0.977-0.544 2.012-1.108 3.035-1.778 1.049-0.626 2.074-1.364 3.123-2.106 1.061-0.726 2.047-1.586 3.084-2.382 0.996-0.846 1.961-1.73 2.928-2.584 0.91-0.913 1.805-1.812 2.672-2.681 0.812-0.922 1.6-1.813 2.344-2.658 0.756-0.84 1.361-1.721 1.979-2.488 0.598-0.784 1.176-1.479 1.604-2.158 0.447-0.663 0.84-1.242 1.16-1.719 0.645-0.955 1.014-1.499 1.014-1.499s-0.348 0.559-0.955 1.535c-0.307 0.489-0.676 1.083-1.1 1.764-0.402 0.696-0.957 1.414-1.525 2.222-0.59 0.792-1.168 1.7-1.891 2.571-0.719 0.878-1.477 1.804-2.26 2.762-0.842 0.91-1.711 1.849-2.596 2.804-0.941 0.898-1.885 1.827-2.859 2.722-1.02 0.844-1.988 1.753-3.037 2.531-1.037 0.792-2.053 1.582-3.1 2.26-1.018 0.721-2.051 1.337-3.029 1.93-0.984 0.58-1.939 1.092-2.828 1.549-1.783 0.909-3.338 1.536-4.439 1.953-0.557 0.195-0.99 0.351-1.311 0.443-0.305 0.09-0.469 0.139-0.469 0.139l-0.36-1.5z" fill="#AD691F"/>
	<path d="m362.87 110.62s0.479-0.058 1.312-0.159c0.834-0.081 2.021-0.267 3.441-0.45 1.418-0.202 3.066-0.43 4.824-0.722 1.756-0.291 3.623-0.625 5.473-1.025 0.92-0.216 1.855-0.381 2.752-0.629 0.893-0.256 1.799-0.419 2.639-0.696 0.846-0.267 1.689-0.457 2.449-0.738 0.762-0.276 1.518-0.472 2.174-0.739 0.656-0.265 1.273-0.486 1.824-0.683 0.541-0.208 0.994-0.437 1.379-0.602 0.768-0.338 1.225-0.516 1.225-0.516s-0.381 0.294-1.074 0.78c-0.686 0.5-1.703 1.159-2.988 1.842-0.637 0.365-1.363 0.661-2.125 1.009-0.756 0.362-1.586 0.648-2.441 0.959-0.854 0.323-1.758 0.581-2.68 0.845-0.916 0.271-1.865 0.462-2.807 0.697-1.902 0.377-3.812 0.695-5.619 0.858-1.803 0.187-3.496 0.251-4.943 0.252-1.447 0.009-2.652-0.086-3.496-0.14-0.83-0.05-1.3-0.13-1.3-0.13z" fill="#AD691F"/>
	<path d="m345.55 102.24s-0.158-0.063-0.453-0.182c-0.311-0.122-0.727-0.317-1.266-0.562-1.057-0.517-2.545-1.286-4.238-2.356-0.844-0.536-1.746-1.135-2.672-1.804-0.92-0.681-1.895-1.39-2.838-2.202-0.979-0.772-1.918-1.651-2.877-2.537-0.973-0.872-1.854-1.868-2.789-2.801-0.891-0.981-1.742-1.995-2.598-2.975-0.789-1.032-1.568-2.049-2.322-3.032-0.691-1.026-1.361-2.018-1.994-2.959-0.641-0.934-1.131-1.892-1.645-2.736-0.492-0.856-0.979-1.622-1.314-2.353-0.359-0.718-0.674-1.344-0.93-1.859-0.516-1.028-0.811-1.617-0.811-1.617s0.316 0.577 0.869 1.586c0.277 0.504 0.611 1.116 0.996 1.819 0.363 0.714 0.875 1.462 1.396 2.296 0.543 0.821 1.064 1.754 1.738 2.66 0.662 0.911 1.363 1.871 2.088 2.864 0.781 0.946 1.592 1.923 2.412 2.917 0.883 0.94 1.764 1.909 2.674 2.844 0.961 0.887 1.863 1.835 2.852 2.657 0.977 0.835 1.93 1.665 2.918 2.386 0.955 0.762 1.934 1.42 2.857 2.052 0.93 0.619 1.83 1.17 2.67 1.661 1.682 0.979 3.146 1.666 4.176 2.123 0.516 0.213 0.926 0.387 1.191 0.479 0.281 0.101 0.434 0.154 0.434 0.154l-0.54 1.48z" fill="#AD691F"/>
	<path d="m340.75 156.46s-0.197-0.079-0.566-0.225c-0.387-0.15-0.91-0.394-1.584-0.698-1.328-0.645-3.201-1.601-5.33-2.937-1.062-0.67-2.199-1.417-3.365-2.253-1.158-0.852-2.387-1.738-3.578-2.754-1.232-0.966-2.418-2.067-3.627-3.175-1.229-1.091-2.34-2.339-3.521-3.51-1.123-1.23-2.201-2.5-3.281-3.73-1-1.295-1.984-2.57-2.938-3.804-0.875-1.288-1.721-2.533-2.523-3.714-0.812-1.173-1.434-2.376-2.086-3.436-0.623-1.077-1.234-2.039-1.664-2.957-0.455-0.902-0.852-1.688-1.182-2.335-0.651-1.294-1.026-2.033-1.026-2.033s0.396 0.728 1.087 2.002c0.348 0.637 0.766 1.409 1.246 2.296 0.455 0.902 1.098 1.846 1.75 2.9 0.682 1.037 1.334 2.215 2.178 3.36 0.834 1.15 1.711 2.364 2.617 3.619 0.982 1.196 1.996 2.433 3.027 3.689 1.107 1.189 2.213 2.415 3.359 3.598 1.205 1.125 2.338 2.324 3.582 3.366 1.225 1.058 2.426 2.109 3.668 3.024 1.201 0.966 2.434 1.802 3.596 2.604 1.17 0.787 2.307 1.486 3.363 2.111 2.123 1.245 3.971 2.12 5.268 2.704 0.654 0.273 1.17 0.495 1.514 0.615 0.355 0.128 0.547 0.197 0.547 0.197l-0.54 1.46z" fill="#AD691F"/>
	<path d="m339.15 172.74s0.355-0.071 1.021-0.204c0.654-0.128 1.623-0.363 2.855-0.665 1.229-0.327 2.725-0.711 4.416-1.235 1.695-0.514 3.602-1.121 5.654-1.871 2.074-0.684 4.246-1.628 6.584-2.529 2.279-1.033 4.734-2.021 7.168-3.266 1.223-0.612 2.467-1.234 3.725-1.864 1.258-0.628 2.473-1.372 3.732-2.062 1.24-0.721 2.533-1.378 3.756-2.164 1.229-0.778 2.461-1.559 3.691-2.341 2.51-1.497 4.797-3.324 7.162-4.959 1.189-0.808 2.287-1.72 3.381-2.609 1.096-0.886 2.178-1.762 3.24-2.623 1.088-0.837 2.072-1.754 3.039-2.652 0.973-0.893 1.92-1.766 2.846-2.616 1.896-1.652 3.484-3.421 5.004-5.004 1.484-1.611 2.955-2.994 4.068-4.388 1.137-1.373 2.127-2.571 2.943-3.556 1.633-1.973 2.564-3.101 2.564-3.101s-0.914 1.143-2.514 3.143c-0.801 1-1.77 2.215-2.887 3.608-1.09 1.415-2.539 2.822-4 4.461-1.494 1.611-3.057 3.411-4.932 5.098-0.914 0.868-1.85 1.76-2.809 2.671-0.953 0.917-1.93 1.854-3.004 2.711-1.053 0.882-2.125 1.78-3.211 2.688-1.082 0.911-2.17 1.845-3.352 2.677-2.344 1.681-4.615 3.557-7.111 5.104-1.227 0.806-2.451 1.613-3.674 2.417-1.219 0.811-2.508 1.494-3.744 2.24-1.256 0.716-2.469 1.485-3.725 2.139-1.258 0.656-2.498 1.304-3.719 1.94-2.434 1.295-4.889 2.332-7.172 3.413-2.342 0.949-4.52 1.938-6.604 2.665-2.061 0.792-3.977 1.439-5.688 1.987-1.703 0.56-3.217 0.976-4.457 1.327-1.25 0.328-2.232 0.584-2.922 0.731-0.678 0.147-1.037 0.226-1.037 0.226l-0.29-1.56z" fill="#AD691F"/>
	<path d="m335.34 185.39s-0.369-0.019-1.062-0.055c-0.703-0.034-1.717-0.127-3-0.249-1.283-0.146-2.844-0.312-4.615-0.587-1.775-0.265-3.771-0.592-5.934-1.04-2.176-0.379-4.484-1.002-6.949-1.56-2.428-0.696-5.02-1.322-7.631-2.206-1.307-0.431-2.635-0.869-3.98-1.312-1.348-0.442-2.67-1.004-4.022-1.508-1.343-0.536-2.726-1.001-4.06-1.605-1.334-0.594-2.676-1.192-4.017-1.789-2.714-1.123-5.257-2.605-7.845-3.884-1.301-0.629-2.523-1.375-3.741-2.098-1.217-0.721-2.42-1.432-3.603-2.133-1.201-0.671-2.313-1.438-3.403-2.189-1.093-0.744-2.163-1.472-3.204-2.18-2.121-1.362-3.957-2.885-5.691-4.232-1.709-1.381-3.365-2.535-4.67-3.754-1.326-1.194-2.482-2.236-3.435-3.093-1.901-1.715-2.988-2.695-2.988-2.695s1.104 0.961 3.034 2.644c0.965 0.842 2.137 1.862 3.48 3.034 1.322 1.195 2.998 2.321 4.727 3.67 1.755 1.316 3.607 2.804 5.748 4.126 1.05 0.689 2.129 1.397 3.23 2.121 1.1 0.729 2.219 1.476 3.428 2.125 1.19 0.678 2.399 1.367 3.625 2.064 1.223 0.7 2.453 1.422 3.76 2.027 2.597 1.229 5.148 2.663 7.867 3.733 1.344 0.572 2.686 1.143 4.023 1.712 1.334 0.578 2.715 1.017 4.057 1.527 1.354 0.478 2.676 1.014 4.021 1.431 1.345 0.418 2.67 0.831 3.976 1.236 2.604 0.834 5.188 1.411 7.602 2.062 2.453 0.511 4.75 1.091 6.908 1.429 2.146 0.408 4.125 0.698 5.883 0.93 1.756 0.244 3.295 0.38 4.559 0.503 1.266 0.098 2.26 0.173 2.928 0.193 0.676 0.023 1.039 0.036 1.039 0.036l-0.05 1.57z" fill="#AD691F"/>
	<path d="m328.89 89.717s-0.482 0.035-1.326 0.021c-0.844-0.024-2.053-0.042-3.494-0.184-1.441-0.136-3.119-0.356-4.898-0.709-1.783-0.329-3.658-0.823-5.516-1.375-0.914-0.32-1.846-0.599-2.732-0.954-0.891-0.348-1.766-0.688-2.586-1.089-0.824-0.389-1.625-0.75-2.344-1.181-0.726-0.417-1.424-0.779-2.021-1.202-1.221-0.799-2.172-1.548-2.809-2.11-0.645-0.549-0.994-0.877-0.994-0.877s0.436 0.219 1.17 0.627c0.367 0.2 0.795 0.469 1.316 0.727 0.528 0.247 1.123 0.524 1.754 0.849 0.631 0.326 1.362 0.59 2.096 0.936 0.732 0.35 1.553 0.618 2.367 0.961 0.812 0.354 1.701 0.601 2.566 0.938 0.869 0.33 1.785 0.582 2.682 0.881 1.805 0.57 3.633 1.076 5.354 1.527 1.723 0.454 3.344 0.834 4.736 1.166 1.396 0.314 2.561 0.609 3.385 0.766 0.82 0.181 1.29 0.282 1.29 0.282z" fill="#AD691F"/>
	<path d="m312.34 132.12s-0.688 0.042-1.898 0.029c-1.205-0.023-2.938-0.036-5.003-0.219-2.062-0.184-4.478-0.42-7.038-0.859-1.271-0.255-2.607-0.437-3.93-0.783-1.332-0.309-2.682-0.632-4.012-1.04-1.34-0.372-2.654-0.84-3.938-1.319-1.306-0.42-2.511-1.057-3.708-1.581-1.207-0.506-2.262-1.244-3.309-1.821-1.033-0.612-1.912-1.355-2.771-1.95-0.856-0.602-1.479-1.367-2.099-1.942-0.635-0.566-1.059-1.182-1.412-1.678-0.713-0.988-1.094-1.554-1.094-1.554s0.481 0.493 1.324 1.355c0.406 0.438 0.887 0.978 1.578 1.45 0.682 0.48 1.354 1.126 2.223 1.658 0.883 0.513 1.771 1.159 2.818 1.672 1.064 0.481 2.124 1.095 3.312 1.557 1.182 0.473 2.379 1.005 3.654 1.415 1.258 0.452 2.543 0.888 3.86 1.239 2.597 0.813 5.265 1.401 7.759 1.973 2.508 0.529 4.854 1.019 6.889 1.338 2.029 0.322 3.723 0.639 4.918 0.788 1.2 0.16 1.88 0.26 1.88 0.26z" fill="#AD691F"/>
	<path d="m289.99 173.06s-0.992-0.955-2.166-2.631c-0.588-0.836-1.242-1.838-1.843-2.97-0.628-1.117-1.175-2.375-1.694-3.643-0.461-1.292-0.887-2.602-1.14-3.871-0.12-0.636-0.261-1.242-0.306-1.836-0.061-0.591-0.129-1.145-0.131-1.663-0.015-1.037 0.029-1.892 0.144-2.487 0.099-0.589 0.151-0.925 0.151-0.925s0.06 0.336 0.16 0.924c0.062 0.585 0.244 1.405 0.438 2.378 0.098 0.486 0.266 1.002 0.387 1.554 0.115 0.552 0.342 1.115 0.491 1.711 0.151 0.597 0.414 1.187 0.591 1.809 0.202 0.615 0.451 1.228 0.676 1.848 0.938 2.466 2.026 4.89 2.85 6.726 0.84 1.84 1.39 3.07 1.39 3.07z" fill="#AD691F"/>
	<path d="m310.1 180.32s-0.451 0.438-1.307 1.133c-0.865 0.676-2.084 1.683-3.664 2.718-1.568 1.054-3.44 2.227-5.516 3.367-1.059 0.527-2.121 1.139-3.26 1.639-1.133 0.514-2.277 1.051-3.456 1.509-1.17 0.478-2.356 0.912-3.541 1.298-1.167 0.431-2.356 0.739-3.5 1.048-1.134 0.344-2.262 0.561-3.33 0.761-1.063 0.219-2.071 0.407-3.013 0.514-0.938 0.135-1.799 0.237-2.562 0.303-0.768 0.035-1.437 0.065-1.986 0.09-1.102 0.043-1.728 0.046-1.728 0.046s0.617-0.141 1.693-0.349c0.536-0.101 1.188-0.223 1.937-0.363 0.741-0.176 1.571-0.399 2.481-0.592 0.914-0.184 1.89-0.454 2.911-0.759 1.029-0.286 2.105-0.605 3.21-0.974 1.11-0.342 2.247-0.729 3.391-1.153 1.155-0.394 2.312-0.839 3.454-1.321 2.314-0.889 4.559-1.949 6.674-2.922 1.047-0.515 2.059-1.013 3.016-1.484 0.955-0.484 1.854-0.949 2.668-1.408 3.31-1.79 5.44-3.12 5.44-3.12z" fill="#AD691F"/>
	<path d="m378 157.44s2.139 1.151 5.369 2.77c1.611 0.817 3.506 1.737 5.535 2.703 2.047 0.925 4.221 1.937 6.455 2.783 1.105 0.452 2.221 0.884 3.336 1.239 1.105 0.397 2.203 0.738 3.281 1.028 1.066 0.34 2.119 0.527 3.115 0.754 0.996 0.261 1.953 0.291 2.836 0.437 0.887 0.161 1.697 0.083 2.424 0.125 0.367 0.006 0.707 0.011 1.025 0.017 0.309-0.046 0.596-0.088 0.852-0.126 1.037-0.147 1.65-0.213 1.65-0.213s-0.564 0.197-1.592 0.512c-0.256 0.077-0.545 0.163-0.854 0.256-0.32 0.042-0.666 0.087-1.037 0.136-0.738 0.07-1.592 0.271-2.512 0.19-0.914-0.046-1.938 0.021-2.975-0.179-1.043-0.155-2.164-0.261-3.271-0.571-1.121-0.261-2.283-0.524-3.416-0.929-1.156-0.35-2.303-0.772-3.438-1.22-1.146-0.431-2.244-0.959-3.346-1.442-1.098-0.482-2.127-1.062-3.15-1.566-2.008-1.081-3.842-2.159-5.367-3.158-1.535-0.981-2.752-1.893-3.609-2.516-0.85-0.63-1.31-1.03-1.31-1.03z" fill="#AD691F"/>
</g>
<g id="change2">
	<path d="m62.537 401.01c20.116 4.433 39.303-39.236 39.303-39.236s-10.205-8.653-19.329-5.215c2.172-2.582 4.448-5.031 6.793-7.375-27.574 0.783-45.739-5.266-34.265-5.832 24.189-1.194 30.92-14.528 30.92-14.528s-84.645-11.01-85.959-45.88c13.421 20.998 67.186 0.06 67.186 0.06s-1.33-16.131-12.075-20.998c6.877-0.592 13.686-0.646 20.378-0.276-21.873-20.595-30.73-41.018-22.104-32.689 17.058 16.47 32.128 11.465 32.128 11.465s-47.636-68.818-20.833-95.458c-7.73 25.099 44.706 48.225 44.706 48.225s11.917-12.841 8.622-24.133c7.83 6.972 14.539 14.768 20.297 22.971 1.171-18.37 5.131-28.142 5.582-18.97 1.195 24.188 14.531 30.917 14.531 30.917s11.014-84.64 45.882-85.955c-20.997 13.419-0.058 67.185-0.058 67.185s16.132-1.33 20.997-12.074c1.704 19.819-0.989 39.096-5.72 56.543 6.496-7.695 13.991-14.949 22.63-21.167-4.119 8.837 3.738 19.671 3.738 19.671s44.991-15.828 42.097-36.223c17.956 22.574-29.188 75.068-29.188 75.068s11.404 4.737 27.211-7.539c15.281-11.867-34.277 56.766-97.647 48.498 25.311 23.192 51.208 41.797 66.878 38.94 6.329 4.78-11.476 12.396-11.476 12.396s-24.497-17.877-58.106-50.64c4.842 64.726-68.739 109.86-55.636 95.4 13.44-14.839 9.579-26.564 9.579-26.564s-55.906 43.02-77.053 23.41z" fill="#d83"/>
</g>
<g fill="#932712" id="change3">
	<path d="m80.533 195.45s4.694 7.758 12.7 18.672c1.968 2.755 4.218 5.651 6.558 8.743 2.389 3.054 4.918 6.267 7.599 9.535 2.723 3.236 5.466 6.643 8.435 9.945 1.466 1.666 2.943 3.348 4.424 5.035 1.527 1.647 3.059 3.303 4.591 4.955 3.03 3.342 6.214 6.539 9.333 9.695 3.071 3.205 6.298 6.154 9.35 9.078 3.021 2.959 6.13 5.609 9.022 8.188 1.452 1.283 2.864 2.527 4.229 3.734 1.411 1.155 2.773 2.271 4.082 3.344 2.625 2.127 4.991 4.129 7.159 5.812 2.197 1.65 4.11 3.088 5.688 4.271l4.954 3.719s-1.786-1.371-4.914-3.774c-1.564-1.199-3.462-2.656-5.639-4.326-2.148-1.709-4.492-3.735-7.092-5.892-1.296-1.086-2.644-2.213-4.041-3.381-1.351-1.223-2.748-2.483-4.184-3.779-2.861-2.606-5.938-5.288-8.923-8.276-3.015-2.955-6.204-5.933-9.236-9.168-3.082-3.185-6.224-6.408-9.211-9.776-1.511-1.666-3.021-3.334-4.528-4.994-1.462-1.699-2.916-3.396-4.36-5.073-2.928-3.327-5.626-6.753-8.307-10.011-2.637-3.289-5.126-6.521-7.475-9.592-2.3-3.109-4.513-6.021-6.442-8.787-7.869-10.975-12.431-18.707-12.432-18.705l-1.333 0.81z" fill="inherit"/>
	<path d="m162.76 287.89" fill="inherit"/>
	<path d="m124.75 251.4s-0.144 0.069-0.412 0.197c-0.254 0.125-0.664 0.295-1.18 0.516-1.047 0.412-2.562 0.974-4.441 1.488-0.938 0.256-1.964 0.51-3.058 0.74-1.097 0.213-2.252 0.451-3.467 0.6-1.206 0.197-2.464 0.297-3.745 0.406-1.279 0.129-2.587 0.106-3.893 0.17-1.308-0.004-2.614-0.059-3.903-0.088-1.284-0.109-2.548-0.22-3.772-0.324-1.216-0.179-2.392-0.354-3.505-0.52-1.12-0.154-2.15-0.438-3.117-0.625-0.96-0.213-1.852-0.371-2.617-0.613-0.771-0.219-1.442-0.406-1.995-0.564-1.109-0.313-1.742-0.493-1.742-0.493s0.625 0.203 1.72 0.558c0.549 0.178 1.215 0.393 1.979 0.641 0.756 0.271 1.642 0.463 2.598 0.713 0.963 0.226 1.99 0.547 3.105 0.744 1.115 0.207 2.292 0.426 3.507 0.651 1.231 0.153 2.501 0.31 3.792 0.47 1.298 0.078 2.619 0.182 3.941 0.235 1.324-0.014 2.65 0.058 3.953-0.024 1.305-0.064 2.591-0.117 3.826-0.273 1.243-0.104 2.431-0.301 3.561-0.479 1.127-0.193 2.187-0.416 3.161-0.644 1.95-0.455 3.542-0.979 4.652-1.369 0.551-0.213 0.983-0.373 1.288-0.508 0.292-0.129 0.448-0.196 0.448-0.196l-0.68-1.43z" fill="inherit"/>
	<path d="m104.82 255.91s-0.402 0.264-1.106 0.726c-0.69 0.478-1.718 1.102-2.919 1.877-1.214 0.76-2.621 1.649-4.153 2.561-1.53 0.912-3.171 1.859-4.843 2.748-0.842 0.428-1.662 0.904-2.507 1.295-0.848 0.379-1.646 0.84-2.467 1.172-0.817 0.34-1.583 0.736-2.346 1.012-0.762 0.281-1.463 0.617-2.137 0.84-0.675 0.221-1.288 0.449-1.835 0.654-0.549 0.191-1.042 0.311-1.442 0.432-0.805 0.234-1.267 0.394-1.267 0.394s0.479-0.021 1.321-0.095c0.847-0.061 2.049-0.213 3.475-0.522 0.72-0.129 1.468-0.373 2.273-0.598 0.812-0.212 1.631-0.529 2.487-0.845 0.859-0.303 1.716-0.688 2.589-1.08 0.876-0.385 1.725-0.854 2.596-1.28 1.696-0.938 3.362-1.927 4.847-2.97 1.499-1.02 2.833-2.062 3.939-2.996 1.112-0.928 1.973-1.776 2.582-2.36 0.61-0.59 0.92-0.96 0.92-0.96z" fill="inherit"/>
	<path d="m112.65 238.34s0.08-0.149 0.229-0.429c0.159-0.297 0.351-0.715 0.604-1.247 0.474-1.078 1.116-2.626 1.718-4.534 0.299-0.955 0.603-1.996 0.879-3.104 0.263-1.113 0.55-2.285 0.747-3.517 0.25-1.22 0.4-2.498 0.562-3.792 0.18-1.294 0.21-2.622 0.323-3.939 0.047-1.324 0.045-2.648 0.066-3.947-0.062-1.299-0.123-2.578-0.181-3.816-0.134-1.229-0.263-2.418-0.386-3.547-0.113-1.127-0.355-2.176-0.508-3.152-0.176-0.972-0.3-1.87-0.513-2.646-0.189-0.781-0.353-1.46-0.489-2.021-0.271-1.118-0.425-1.757-0.425-1.757s0.131 0.644 0.36 1.772c0.114 0.564 0.253 1.248 0.411 2.033 0.185 0.78 0.277 1.682 0.415 2.657 0.115 0.977 0.318 2.027 0.389 3.154 0.081 1.124 0.164 2.312 0.252 3.535 0.011 1.228 0.023 2.497 0.038 3.785-0.068 1.287-0.115 2.596-0.208 3.897-0.161 1.299-0.24 2.604-0.465 3.869-0.206 1.268-0.401 2.516-0.69 3.704-0.238 1.198-0.561 2.333-0.86 3.411-0.311 1.072-0.645 2.074-0.968 2.992-0.654 1.834-1.332 3.305-1.821 4.316-0.257 0.493-0.458 0.894-0.602 1.135-0.151 0.258-0.23 0.396-0.23 0.396l1.36 0.82z" fill="inherit"/>
	<path d="m151.3 276.67s0.1-0.188 0.287-0.539c0.199-0.363 0.442-0.887 0.762-1.555 0.598-1.35 1.413-3.289 2.177-5.684 0.379-1.195 0.765-2.502 1.12-3.892 0.334-1.397 0.701-2.868 0.957-4.414 0.318-1.532 0.512-3.139 0.723-4.766 0.233-1.626 0.278-3.296 0.426-4.955 0.064-1.664 0.068-3.328 0.1-4.966-0.07-1.635-0.141-3.243-0.209-4.801-0.161-1.549-0.319-3.047-0.467-4.468-0.136-1.419-0.437-2.739-0.624-3.971-0.218-1.224-0.371-2.354-0.635-3.331-0.234-0.982-0.437-1.84-0.604-2.548-0.335-1.407-0.527-2.216-0.527-2.216s0.167 0.812 0.461 2.229c0.145 0.71 0.324 1.572 0.528 2.562 0.235 0.98 0.354 2.117 0.536 3.344 0.147 1.23 0.41 2.555 0.503 3.971 0.106 1.418 0.218 2.91 0.333 4.455 0.023 1.547 0.044 3.146 0.067 4.773-0.079 1.621-0.132 3.271-0.245 4.914-0.195 1.638-0.287 3.285-0.566 4.883-0.253 1.601-0.493 3.176-0.851 4.678-0.293 1.514-0.698 2.947-1.068 4.309-0.385 1.355-0.803 2.623-1.208 3.783-0.818 2.32-1.666 4.182-2.28 5.465-0.323 0.631-0.577 1.133-0.759 1.445-0.189 0.328-0.292 0.502-0.292 0.502l1.35 0.81z" fill="inherit"/>
	<path d="m163.02 288.08s-0.319 0.174-0.911 0.502c-0.582 0.324-1.475 0.771-2.613 1.332-1.147 0.545-2.538 1.217-4.17 1.906-1.628 0.7-3.476 1.467-5.528 2.219-2.025 0.813-4.295 1.496-6.661 2.315-2.408 0.681-4.923 1.509-7.585 2.127-1.328 0.32-2.679 0.646-4.046 0.979-1.366 0.332-2.775 0.55-4.183 0.834-1.414 0.248-2.826 0.58-4.267 0.771-1.44 0.195-2.885 0.395-4.332 0.592-2.884 0.477-5.809 0.555-8.67 0.83-1.431 0.15-2.856 0.162-4.266 0.188-1.409 0.029-2.799 0.059-4.169 0.088-1.371 0.062-2.716-0.004-4.032-0.065-1.318-0.058-2.605-0.111-3.86-0.164-2.516-0.039-4.872-0.365-7.052-0.595-2.174-0.272-4.192-0.383-5.941-0.729-1.753-0.316-3.285-0.592-4.542-0.818-2.522-0.455-3.961-0.715-3.961-0.715s1.435 0.281 3.948 0.781c1.257 0.246 2.782 0.549 4.533 0.893 1.746 0.379 3.76 0.521 5.935 0.83 2.181 0.267 4.537 0.633 7.057 0.715 1.257 0.072 2.548 0.148 3.868 0.229 1.32 0.086 2.671 0.172 4.045 0.134 1.375-0.005 2.771-0.013 4.186-0.019 1.416-0.002 2.85 0.01 4.289-0.117 2.875-0.228 5.821-0.258 8.727-0.688 1.457-0.176 2.915-0.348 4.366-0.522 1.453-0.166 2.878-0.476 4.306-0.703 1.42-0.262 2.844-0.459 4.227-0.771 1.382-0.309 2.749-0.614 4.093-0.916 2.693-0.577 5.239-1.37 7.681-2.018 2.402-0.785 4.703-1.436 6.765-2.225 2.084-0.725 3.968-1.465 5.626-2.15 1.663-0.672 3.087-1.33 4.261-1.861 1.167-0.557 2.083-0.996 2.705-1.325 0.613-0.322 0.939-0.498 0.939-0.498l-0.8-1.36z" fill="inherit"/>
	<path d="m174.1 295.29s0.268-0.252 0.775-0.728c0.517-0.479 1.229-1.203 2.133-2.127 0.886-0.938 1.97-2.069 3.146-3.426 1.188-1.348 2.502-2.885 3.863-4.621 1.417-1.693 2.781-3.66 4.304-5.676 1.405-2.098 2.982-4.248 4.406-6.607 0.722-1.174 1.455-2.362 2.197-3.571 0.745-1.205 1.392-2.488 2.103-3.746 0.679-1.274 1.435-2.522 2.065-3.845 0.635-1.315 1.275-2.637 1.914-3.959 1.35-2.607 2.337-5.383 3.489-8.026 0.588-1.321 1.042-2.681 1.504-4.021 0.465-1.334 0.926-2.653 1.377-3.951 0.485-1.286 0.841-2.594 1.189-3.868 0.354-1.273 0.702-2.521 1.041-3.733 0.744-2.408 1.163-4.757 1.619-6.904 0.415-2.156 0.937-4.107 1.147-5.883 0.243-1.767 0.453-3.308 0.627-4.578 0.347-2.537 0.546-3.986 0.546-3.986s-0.223 1.445-0.613 3.978c-0.195 1.267-0.431 2.802-0.703 4.564-0.239 1.768-0.794 3.708-1.244 5.853-0.491 2.139-0.949 4.473-1.73 6.861-0.356 1.207-0.726 2.439-1.1 3.705-0.369 1.268-0.743 2.561-1.248 3.835-0.473 1.286-0.953 2.593-1.439 3.915-0.482 1.322-0.955 2.67-1.563 3.975-1.19 2.615-2.218 5.355-3.604 7.93-0.657 1.304-1.315 2.604-1.969 3.902-0.646 1.301-1.419 2.529-2.116 3.783-0.726 1.238-1.389 2.5-2.149 3.686-0.755 1.188-1.504 2.357-2.239 3.51-1.451 2.318-3.054 4.423-4.479 6.48-1.544 1.971-2.925 3.896-4.356 5.547-1.377 1.695-2.702 3.195-3.895 4.506-1.183 1.32-2.271 2.416-3.157 3.326-0.904 0.891-1.616 1.588-2.112 2.035-0.501 0.457-0.771 0.699-0.771 0.699l1.02 1.17z" fill="inherit"/>
	<path d="m117.31 218.02s0.391-0.285 1.027-0.84c0.629-0.561 1.541-1.354 2.55-2.395 1.015-1.033 2.156-2.285 3.285-3.701 1.151-1.402 2.264-2.99 3.329-4.607 0.492-0.836 1.022-1.647 1.473-2.492 0.456-0.84 0.906-1.665 1.273-2.5 0.378-0.83 0.758-1.622 1.03-2.416 0.285-0.785 0.583-1.513 0.769-2.221 0.417-1.398 0.66-2.583 0.785-3.423 0.138-0.837 0.194-1.312 0.194-1.312s-0.193 0.448-0.49 1.233c-0.152 0.391-0.306 0.872-0.537 1.406-0.246 0.529-0.521 1.124-0.793 1.779-0.272 0.656-0.66 1.33-0.996 2.068-0.335 0.739-0.79 1.474-1.19 2.261-0.392 0.794-0.911 1.557-1.356 2.373-0.451 0.813-0.989 1.596-1.48 2.401-1.01 1.602-2.082 3.166-3.105 4.624-1.022 1.456-2.016 2.794-2.867 3.945-0.863 1.14-1.562 2.118-2.091 2.769-0.52 0.67-0.81 1.05-0.81 1.05z" fill="inherit"/>
	<path d="m157.31 239.75s0.553-0.414 1.468-1.204c0.909-0.796 2.224-1.922 3.684-3.395 1.457-1.472 3.148-3.209 4.823-5.195 0.807-1.02 1.71-2.018 2.498-3.135 0.817-1.096 1.642-2.213 2.394-3.383 0.784-1.146 1.486-2.354 2.159-3.549 0.726-1.164 1.236-2.427 1.813-3.6 0.595-1.166 0.925-2.41 1.354-3.527 0.394-1.133 0.587-2.268 0.858-3.275 0.266-1.014 0.25-2 0.351-2.836 0.118-0.844 0.045-1.588-0.003-2.194-0.094-1.215-0.169-1.894-0.169-1.894s-0.051 0.689-0.136 1.892c-0.028 0.596-0.047 1.317-0.271 2.126-0.211 0.806-0.309 1.732-0.629 2.699-0.343 0.959-0.604 2.029-1.075 3.097-0.502 1.056-0.916 2.207-1.525 3.327-0.599 1.121-1.17 2.3-1.88 3.438-0.67 1.155-1.371 2.319-2.151 3.438-1.459 2.297-3.12 4.467-4.657 6.514-1.574 2.021-3.052 3.909-4.399 5.465-1.343 1.555-2.432 2.891-3.25 3.773-0.8 0.9-1.25 1.42-1.25 1.42z" fill="inherit"/>
	<path d="m200.79 256.62s0.141-1.369-0.041-3.408c-0.093-1.019-0.239-2.205-0.51-3.457-0.241-1.26-0.634-2.573-1.056-3.879-0.481-1.283-1-2.56-1.626-3.69-0.317-0.562-0.601-1.117-0.951-1.603-0.335-0.488-0.639-0.955-0.974-1.354-0.657-0.801-1.243-1.426-1.712-1.807-0.454-0.389-0.713-0.609-0.713-0.609s0.172 0.295 0.474 0.81c0.329 0.485 0.72 1.231 1.199 2.1 0.24 0.435 0.444 0.938 0.709 1.438 0.267 0.496 0.458 1.072 0.728 1.623 0.27 0.555 0.449 1.176 0.714 1.766 0.243 0.6 0.449 1.229 0.678 1.846 0.872 2.49 1.605 5.045 2.161 6.979 0.55 1.94 0.92 3.24 0.92 3.24z" fill="inherit"/>
	<path d="m190.11 275.13s0.629 0.043 1.73 0.023c1.098-0.045 2.678-0.059 4.554-0.287 1.877-0.207 4.065-0.518 6.386-0.984 1.148-0.281 2.354-0.5 3.548-0.85 1.196-0.34 2.418-0.668 3.614-1.078 1.203-0.391 2.389-0.822 3.542-1.293 1.17-0.424 2.277-0.957 3.35-1.457 1.09-0.469 2.092-1.029 3.036-1.568 0.954-0.518 1.845-1.022 2.633-1.549 0.802-0.502 1.528-0.979 2.154-1.422 0.609-0.469 1.141-0.877 1.576-1.213 0.869-0.678 1.35-1.078 1.35-1.078s-0.562 0.291-1.519 0.824c-0.475 0.271-1.053 0.598-1.714 0.973-0.681 0.342-1.459 0.707-2.279 1.148-0.817 0.449-1.735 0.873-2.714 1.297-0.971 0.445-2 0.896-3.081 1.328-1.069 0.457-2.187 0.893-3.334 1.305-1.137 0.445-2.307 0.852-3.491 1.219-2.343 0.814-4.742 1.453-6.985 2.074-1.129 0.283-2.225 0.555-3.261 0.811-1.041 0.246-2.027 0.472-2.946 0.646-3.67 0.78-6.16 1.14-6.16 1.14z" fill="inherit"/>
	<path d="m123.47 301.45s-0.892 2.258-2.315 5.579c-0.706 1.662-1.558 3.589-2.486 5.634-0.968 2.03-1.976 4.207-3.136 6.295-0.555 1.058-1.125 2.104-1.75 3.099-0.589 1.018-1.208 1.983-1.845 2.901-0.596 0.946-1.28 1.771-1.895 2.586-0.591 0.843-1.305 1.481-1.886 2.162-0.574 0.694-1.241 1.157-1.771 1.662-0.275 0.237-0.533 0.461-0.771 0.67-0.268 0.166-0.513 0.315-0.732 0.457-0.887 0.555-1.399 0.899-1.399 0.899s0.557-0.213 1.545-0.635c0.248-0.109 0.522-0.227 0.817-0.357 0.273-0.176 0.567-0.362 0.881-0.562 0.611-0.424 1.389-0.821 2.041-1.475 0.67-0.628 1.495-1.234 2.157-2.058 0.698-0.791 1.485-1.596 2.134-2.547 0.685-0.922 1.405-1.875 2.011-2.914 0.656-1.014 1.26-2.076 1.841-3.15 0.596-1.067 1.095-2.18 1.623-3.26 0.528-1.076 0.941-2.184 1.398-3.227 0.837-2.125 1.544-4.131 2.064-5.877 0.541-1.74 0.881-3.221 1.136-4.25 0.26-1.02 0.35-1.62 0.35-1.62z" fill="inherit"/>
</g>
</svg>