<?xml version="1.0" encoding="UTF-8" standalone="no"?><svg xmlns="http://www.w3.org/2000/svg" xmlns:xlink="http://www.w3.org/1999/xlink" fill="#000000" height="73.1" preserveAspectRatio="xMidYMid meet" version="1" viewBox="7.4 31.0 481.6 73.1" width="481.6" zoomAndPan="magnify"><g id="change1_1"><path d="M24.5,97.3c0.1,2.1-0.3,3.2-2.3,3.1l1.2-2.2c-0.4,0-0.7-0.1-0.8-0.1c-2.5,1.7-4.3,1-4.7-2 c-0.2-1.4-0.9-2-2.1-2.1c-2.2-0.1-4.1-0.3-4.4-3.3c-0.1-1.2-1.7-2.3-2.6-3.5c-0.3-0.4-0.6-0.8-1-1.3l3.8-0.9l-2.8-3.1l2.1-1L8.4,79 l-0.4,0.8c-0.1-0.2-0.2-0.3-0.3-0.5c-0.3-2.5,0.4-3.5,2.9-4c0.5-0.1,0.9-0.3,1.3-0.5c0.9-0.4,1.7-0.9,2.6-1.4 c0.4-0.2,0.8-0.6,1.1-0.7c-0.4-0.9-1.2-1.8-1-2.2c0.5-0.9,1.3-1.7,2.2-2.2c0.4-1.7,1.5-3,3-3.7c1.2-0.6,2.6-3.9,2.4-5.2 c1.4-1,4.2,0.3,4.6-2.7l1.4,0.8c1-1.9,4.7-3.8,6.5-3.4l-1.4-2.5l3.2,0.5l-0.1-1.8c2.4-0.6,4.7-1.3,7-1.6c3.5-0.5,7-0.8,10.5-1.2 c0.5-0.1,1-0.4,1.4-0.7c0.2-0.1,0.3-0.5,0.5-0.6c2.2-0.2,4.4-0.3,6.6-0.5c0.5,0,1-0.4,1.5-0.4c3.3-0.2,6.5-0.4,9.8-0.7 c1.8-0.2,3.7-0.4,5.5-0.6c2.7-0.2,5.5-0.5,8.2-0.7c3.8-0.4,7.7-0.9,11.5-1.3c1.6-0.1,3.2,0,4.8,0c0.2,0,0.4,0,0.6,0 c2.4-0.5,4.9-0.9,7.3-1.5c1.4-0.4,2.6-0.5,3.7,0.6c0.3,0.2,0.6,0.2,0.9,0.1c2.5-0.7,4.9-1.6,7.4-2.1c1.1-0.2,2.3,0.3,3.4,0.5 c0.7,0.1,1.5,0.5,2,0.3c3.6-1.7,7.4-1.2,11.2-1c2.2-0.1,4.5-0.3,6.7-0.7c2.7-0.2,5.4-0.3,8-0.5c1.5-0.1,3.1,0,4.6,0 c0.4,0,0.9,0.1,1.3,0.3c1.3,1.3,1.8,0.4,2-0.3c2.4-0.1,4.6-0.3,6.8-0.3c2.7-0.1,5.4-0.1,8.1-0.2c2.3-0.1,4.6-0.3,6.9-0.4 c0.9,0,2.1-0.3,2.3,1.2c0,0.2,0.7,0.3,1.1,0.5l0.2-1.7c0.4,0,0.7,0,1.1,0c2.4,0.3,4.8,0.7,7.2,0.8s4.7-0.4,7-0.3 c1.8,0.1,3.7,0.6,5.5,0.9c1.3,0.2,2.9,0.6,3.8,0.1c1.4-0.9,2.1-0.1,3.3,0.1c1.7,0.4,3.4,0.3,5-0.2c1.3-0.5,2.7-0.7,4.1-0.6 c1.8,0.2,3.8-0.4,5.6-0.5c0.6,0,1.3,0.1,1.9,0.3c1.9-0.2,3.7-0.5,5.5-0.6c4.6-0.2,9.2-0.3,13.8-0.6c1.2-0.1,2.3-0.4,3.5-0.6 c0.5-0.1,0.9-0.1,1.4,0c1.5,0.2,3.1,0.5,4.6,0.8c0.2,0,0.4-0.3,0.6-0.5c1-0.6,2-1.2,3.3-0.3c0.7,0.3,1.4,0.3,2.1,0.2 c3.6-0.3,7.1-0.8,10.7-1c4.3-0.3,8.7-0.3,13-0.6c0.9,0,1.7-0.7,2.5-0.7c3-0.1,6,0,8.9,0c0.3,0,0.5,0,0.8-0.1c0.9-0.2,1.9-1,2.5-0.7 c3.3,1.5,6.1-0.4,9.1-0.9c0.2,0,0.4,0,0.6,0c3,1,6.1,0.2,9.1,0.3c2.8,0.1,5.5,0.8,8.3,1c1.1-0.1,2.2-0.5,3.1-1.1 c1.8-1,3.5-0.5,5.2,0c0.6,0.2,1.2,0.3,1.9,0.3c1.9-0.2,3.7-0.6,5.6-1c-0.1,0.8-0.2,1.5-0.2,2.1l0.5,0.2l1.2-1.6l2.1,1.2v-1.9 l8.2,1.7c0.2,0,0.5,0,0.6,0c1.1-1.9,2.9-0.5,4.3-0.7c3.1-0.2,6.2-0.2,9.2,0c0.3,0,0.6,0.6,1,1l2.1-0.7c0.6,0.7,0.3,2.9,2.3,1.1 c0.5-0.5,1.9,0.1,2.9,0.1c2.2-0.1,4.6-0.8,6.7-0.2c2.4,0.7,4.9,0.2,7.2,1c0.7,0.2,1.4,0.2,2.1,0c3.9-1.1,7.9-0.9,11.9-0.9 c2.3,0,4.7-0.4,6.9,0.1c2.5,0.5,5.1,0.5,7.7,0.1c2.2-0.2,4.4-0.4,6.5-0.5c1.1,0,2.3,0.1,3.4,0c2-0.1,4-0.2,5.9-0.3 c0.8,0,1.6-0.1,2.5-0.3c1.7-0.6,2.6-0.5,3.7,0.4c2.8-0.2,5.3-0.6,7.7-0.6c3.3-0.1,6.7,0.5,9.9,0c1.7-0.2,3,0.7,4.6,0.3 c1.6-0.4,3.1-0.7,4.7-0.9c0.6-0.1,1.2,0,1.7,0.2c1.2,0.9,2.8,0.8,4,1.2c2.2,0.8,4.4,1.8,6.5,2.7c1,0.4,1,2.9,1.6,4.3 c0.8,1.6,0.4,2.6-1.2,3c-0.2,2.2-0.4,4.3-0.7,6.6l1.5,0.8c-0.2,0.2-0.7,0.3-0.7,0.5c-0.2,1.4-1.3,1.4-2.5,1.4c-1,0-1.7,0.1-1.7,1.4 c0,0.5-0.6,1-1.2,1.9c-0.1-0.8-0.1-1-0.2-1.3c-0.3,0.1-0.8,0.2-0.9,0.4c-0.7,2.6-3.5,3.4-4.9,5.4c0.9,0.3,1.6,0.5,2.3,0.6 c0.7,0.1,1.3,0.2,2,0.2c0.5,2.5,1,4.8,1.6,7.5l-1.8,0.7c0,0.6,0,1.2,0.2,1.8c1,2.3,0.9,2.5-1.9,2.8c-0.5,2.7-1.7,5.3-3.5,7.4 c-2.2,2.7-5.2,3.1-7.8,4.5c-1,0.5-3,0.1-4.3,1.1c-0.3,0.2-1-0.1-1.5-0.2c-0.7-0.2-1.4-0.2-2.1,0c-1.5,0.8-3.4,0.4-4.6,2.1 c-0.4,0.6-2.2,0.3-3.3,0.3c-1.9,0-3.7-0.3-5.5-0.2c-1.3,0-2.6,0.6-3.9,0.6c-1.8,0-3.6-0.3-5.4-0.3c-0.8,0.2-1.6,0.4-2.4,0.6 c-1.4,0.1-2.9,0.2-4.3,0.5c-1.7,0.5-3.2,1.3-5,0.1c-0.5-0.3-1.7,0.5-2.6,0.6c-3,0.4-6.1,0.6-9.1,0.9c-0.4,0-0.7-0.1-1.1-0.3 c-0.2-0.1-0.5-0.4-0.7-0.4c-2.9,0.1-5.8,0.1-8.6,0.3c-0.9,0.1-1.7,0.2-2.6,0.4c-1.7,0.3-3.4,0.5-5.1,0.9c-1.1,0.2-1.8,0.4-2.1-1 c-0.3-1.6-1.3-2.5-3.2-1.8c0.1,0.6,0.2,1.1,0.2,1.7c-4.4-0.8-8.5,0.9-12.6,0.5c-1.5-0.1-3-0.5-4.6-0.6c-3.2-0.1-6.5-0.7-9.6-0.2 c-2.4,0.3-4.9-0.1-7.1-1.1c-1-0.4-2.5,0.6-3.8,0.9c-1.4,0.4-2.9,0.9-4.4,1.3c-0.3-1.2,0.9-2.8-1.3-2.9c-0.5,2.1-1.8,2.8-4.1,2.2 c-0.3-0.1-0.7-0.3-1-0.2c-2.2,1-4.5,0.4-6.8,0.2c-1.2-0.1-2.7,0.7-3.7,0.3c-2.8-1.1-5,0.8-7.5,0.8c-1.9-0.2-3.8-0.5-5.7-0.8 c-0.8-0.2-1.6-0.2-2.3,0c-3.8,1.6-7.9,2.3-12,2.2c-2.8-0.2-5.9-0.7-8.4,0.1c-3.7,1.2-7.3,0.6-10.9,0.8c-2,0.1-4.4-0.3-6.4,1 c-0.6,0.4-1.3,0.5-2,0.3c-3.7-2-7.1,0-10.6,0.4c-1.1,0.1-2.2-0.3-3.3-0.3c-1.2,0-2.4,0.2-3.6,0.5c-2.5,0.8-5,0.1-7.4-0.1 c-3-0.1-6.1,0-9.1,0.4c-1.2,0.1-2.5,0.7-3.5-0.5c-0.4-0.3-0.9-0.4-1.4-0.3c-2.3,1.2-4.7,1.1-7.3,0.9c-3.6-0.3-7.3,0.2-10.9,0.2 c-1.3-0.1-2.6-0.4-3.9-0.7c-0.7-0.1-1.5-0.6-2-0.3c-3.2,1.6-6.3-0.4-9.5-0.1c-1.2,0.1-2.4-0.2-3.7-0.1c-1.4,0.1-3.1,0.8-4.3,0.4 c-3.6-1.3-7.2,0.2-10.8-0.3c-1.1-0.2-2.2-0.4-3.3-0.7c-0.3,0-0.6-0.2-0.8-0.1c-2.8,1.6-5.9,0.4-8.9,0.9c-1.6,0.3-3.4-0.4-5.1-0.4 c-2.8-0.1-5.6-0.1-8.3,0c-2.4,0.1-4.9,0.4-7.3,0.5c-1.2,0-2.4-0.4-3.6-0.4c-3.8,0.2-7.6,0.7-11.4,0.8c-2.9,0.1-5.8-0.4-8.7-0.4 c-2.3,0-4.5,0.5-6.8,0.6c-3.6,0.3-7.2,0.9-10.8,0.6c-4.3-0.3-8.1,1.7-12.2,1.5c-2.3-0.1-4.7,1-7-0.1c-0.5-0.2-1.1-0.2-1.6-0.1 c-1.7,0.3-3.3,0.9-5.1,1.1c-2.6,0.3-5.1,0.4-7.7,0.6c-2.1,0.1-4.2,0.2-6.4,0.3c-0.4,0-0.9-0.1-1.1,0.2c-1.7,1.5-3.6,1.3-5.6,1.2 s-4.4,0.5-6.5,0.1s-3.5,0.6-5.2,0.9c-0.7,0.2-1.4,0.2-2-0.1c-1.7-1.6-3.5-1.2-5.5-0.7c-2,0.4-4,0.5-6,0.4c-0.7-0.1-1.4-0.5-1.9-1 c-1.1-1.1-2-1.4-3.6-0.6c-2.3,1.3-5.9-0.5-6.5-3.1C25.3,98.5,25,97.9,24.5,97.3z" fill="#fce1ce"/></g></svg>